<?xml version="1.0" encoding="iso-8859-1"?>
<!-- Uploaded to: SVG Repo, www.svgrepo.com, Generator: SVG Repo Mixer Tools -->
<svg fill="#000000" height="800px" width="800px" version="1.1" id="Layer_1" xmlns="http://www.w3.org/2000/svg" xmlns:xlink="http://www.w3.org/1999/xlink" 
	 viewBox="0 0 512 512" xml:space="preserve">
<g>
	<g>
		<path d="M511.936,253.587c-1.298-57.879-22.545-114.227-59.83-158.66c-43.952-52.38-105.67-84.509-173.787-90.468
			c-68.12-5.96-134.476,14.962-186.855,58.916c-52.38,43.952-84.509,105.67-90.468,173.786
			c-5.96,68.117,14.963,134.477,58.916,186.855l31.799-26.682c-36.825-43.886-54.355-99.483-49.361-156.554
			c4.994-57.071,31.911-108.78,75.797-145.606c43.886-36.825,99.482-54.363,156.556-49.361
			c57.071,4.992,108.78,31.913,145.605,75.797c61.961,73.843,67.147,178.148,13.951,257.244l-30.568-28.253l3.527,89.071
			l89.061-3.492l-31.232-28.867C496.545,362.789,513.165,308.459,511.936,253.587z"/>
	</g>
</g>
<g>
	<g>
		<path d="M176.004,439.352c6.253,39.213,40.216,69.185,81.19,69.185c40.974,0,74.938-29.973,81.19-69.185H176.004z"/>
	</g>
</g>
<g>
	<g>
		<path d="M252.39,135.028c-65.975,2.506-118.624,57.389-118.542,123.412c0.042,33.435,13.386,63.752,35.024,85.944
			c14.273,14.638,23.358,33.403,25.898,53.458h40.485V287.144h41.511v110.697h42.858c2.542-20.064,11.64-38.83,25.916-53.478
			c21.661-22.225,35.005-52.593,35.005-86.079C380.542,188.566,322.702,132.357,252.39,135.028z"/>
	</g>
</g>
</svg>